<svg width="14" height="14" viewBox="0 0 14 14" fill="none" xmlns="http://www.w3.org/2000/svg">
<path d="M4.17078 12.3083C4.02494 12.1625 3.95203 11.9898 3.95203 11.7903C3.95203 11.5912 4.02494 11.4188 4.17078 11.2729L8.44369 7.00001L4.15619 2.71251C4.02008 2.5764 3.95203 2.40626 3.95203 2.20209C3.95203 1.99793 4.02494 1.82293 4.17078 1.67709C4.31661 1.53126 4.48928 1.45834 4.68878 1.45834C4.88789 1.45834 5.06036 1.53126 5.20619 1.67709L10.1062 6.59168C10.1645 6.65001 10.2059 6.7132 10.2304 6.78126C10.2546 6.84932 10.2666 6.92223 10.2666 7.00001C10.2666 7.07779 10.2546 7.1507 10.2304 7.21876C10.2059 7.28682 10.1645 7.35001 10.1062 7.40834L5.19161 12.3229C5.0555 12.459 4.88789 12.5271 4.68878 12.5271C4.48928 12.5271 4.31661 12.4542 4.17078 12.3083Z" fill="#181817"/>
</svg>
